<svg xmlns="http://www.w3.org/2000/svg" viewBox="0 0 40 40" fill="none">
  <rect x="2" y="2" width="36" height="36" rx="10" fill="#3b82f6"/>
  <!-- 眼睛 -->
  <circle cx="13" cy="18" r="5" fill="white"/>
  <circle cx="27" cy="18" r="5" fill="white"/>
  <circle cx="13" cy="18" r="2" fill="#1a1a1a"/>
  <circle cx="27" cy="18" r="2" fill="#1a1a1a"/>
  <!-- 鼻子 -->
  <circle cx="20" cy="22" r="2" fill="white"/>
  <!-- 嘴巴 -->
  <path d="M16 27c2 1.5 4 1.5 6 0" stroke="white" stroke-width="1.5" stroke-linecap="round"/>
  <!-- 龙角 -->
  <path d="M12 10c-1-2-3-2-3-2s0 3 3 3c1 0 2-0.5 2-1" stroke="white" stroke-width="1.5" stroke-linecap="round" fill="none"/>
  <path d="M28 10c1-2 3-2 3-2s0 3-3 3c-1 0-2-0.5-2-1" stroke="white" stroke-width="1.5" stroke-linecap="round" fill="none"/>
  <!-- 头顶圆点 -->
  <circle cx="20" cy="10" r="1.5" fill="white"/>
</svg>
